<svg width="1200" height="630" viewBox="0 0 1200 630" fill="none" xmlns="http://www.w3.org/2000/svg">
  <rect width="1200" height="630" rx="36" fill="#07111E"/>
  <rect x="24" y="24" width="1152" height="582" rx="30" fill="#0B1624" stroke="#223449"/>
  <rect x="72" y="92" width="288" height="438" rx="26" fill="#0E1B2B" stroke="#23384F"/>
  <text x="106" y="146" fill="#53D2C7" font-family="Arial, sans-serif" font-size="30" font-weight="400">Same device</text>
  <rect x="144" y="196" width="144" height="206" rx="28" fill="#122338" stroke="#2D4863"/>
  <circle cx="216" cy="356" r="14" fill="#1E88E5"/>
  <text x="118" y="454" fill="#D1E2F3" font-family="Arial, sans-serif" font-size="24" font-weight="400">Local browser and local key</text>
  <rect x="414" y="92" width="324" height="438" rx="26" fill="#0E1B2B" stroke="#23384F"/>
  <text x="452" y="146" fill="#53D2C7" font-family="Arial, sans-serif" font-size="30" font-weight="400">Cross device</text>
  <rect x="478" y="214" width="92" height="126" rx="20" fill="#122338" stroke="#2D4863"/>
  <rect x="600" y="186" width="98" height="176" rx="24" fill="#122338" stroke="#2D4863"/>
  <rect x="554" y="258" width="40" height="40" fill="#355A7E"/>
  <path d="M570 278H600" stroke="#86C7FF" stroke-width="4" stroke-linecap="round"/>
  <path d="M548 388C572 372 596 360 624 360C650 360 676 374 700 390" stroke="#6D86A0" stroke-width="4" stroke-linecap="round"/>
  <text x="462" y="454" fill="#D1E2F3" font-family="Arial, sans-serif" font-size="24" font-weight="400">QR handoff, Bluetooth, internet</text>
  <rect x="792" y="92" width="314" height="438" rx="26" fill="#0E1B2B" stroke="#23384F"/>
  <text x="828" y="146" fill="#53D2C7" font-family="Arial, sans-serif" font-size="30" font-weight="400">Compatibility</text>
  <path d="M838 210H1058" stroke="#5B6B7B" stroke-width="2"/>
  <path d="M838 270H1058" stroke="#5B6B7B" stroke-width="2"/>
  <path d="M838 330H1058" stroke="#5B6B7B" stroke-width="2"/>
  <path d="M838 390H1058" stroke="#5B6B7B" stroke-width="2"/>
  <text x="846" y="204" fill="#D1E2F3" font-family="Arial, sans-serif" font-size="21" font-weight="400">Browser</text>
  <text x="846" y="264" fill="#D1E2F3" font-family="Arial, sans-serif" font-size="21" font-weight="400">Operating system</text>
  <text x="846" y="324" fill="#D1E2F3" font-family="Arial, sans-serif" font-size="21" font-weight="400">Provider type</text>
  <text x="846" y="384" fill="#D1E2F3" font-family="Arial, sans-serif" font-size="21" font-weight="400">Native app vs web</text>
  <text x="846" y="468" fill="#4EA0FF" font-family="Arial, sans-serif" font-size="24" font-weight="400">Validate the matrix first</text>
  <path d="M0 566C84 522 152 510 240 518C322 526 398 560 462 560C550 560 620 518 716 518C800 518 866 564 950 564C1040 564 1112 520 1200 520V630H0V566Z" fill="#1E3852"/>
  <path d="M0 590C92 550 178 548 272 566C350 580 424 614 500 614C588 614 662 566 760 566C844 566 910 610 1006 610C1084 610 1140 574 1200 560V630H0V590Z" fill="#0F2338"/>
  <text x="82" y="588" fill="#E7F0F8" font-family="Arial, sans-serif" font-size="44" font-weight="400">Passkey Sign-In Flows and Compatibility</text>
</svg>
