<svg width="1200" height="630" viewBox="0 0 1200 630" fill="none" xmlns="http://www.w3.org/2000/svg">
  <rect width="1200" height="630" rx="36" fill="#07111E"/>
  <rect x="24" y="24" width="1152" height="582" rx="30" fill="#0B1624" stroke="#223449"/>
  <rect x="88" y="134" width="286" height="276" rx="24" fill="#0E1B2B" stroke="#355A7E"/>
  <rect x="458" y="134" width="286" height="276" rx="24" fill="#0E1B2B" stroke="#2D6E8A"/>
  <rect x="828" y="134" width="286" height="276" rx="24" fill="#0E1B2B" stroke="#88653A"/>
  <text x="176" y="194" fill="#E7F0F8" font-family="Arial, sans-serif" font-size="34">Edge</text>
  <text x="532" y="194" fill="#E7F0F8" font-family="Arial, sans-serif" font-size="34">Chrome</text>
  <text x="908" y="194" fill="#E7F0F8" font-family="Arial, sans-serif" font-size="34">Safari</text>
  <rect x="140" y="250" width="182" height="48" rx="12" fill="#173245"/><text x="168" y="282" fill="#9AD2FF" font-family="Arial, sans-serif" font-size="24">Browser</text>
  <rect x="510" y="250" width="182" height="48" rx="12" fill="#16303F"/><text x="538" y="282" fill="#8FE7F3" font-family="Arial, sans-serif" font-size="24">Device</text>
  <rect x="880" y="250" width="182" height="48" rx="12" fill="#3A2B1E"/><text x="908" y="282" fill="#F8D29A" font-family="Arial, sans-serif" font-size="24">Platform</text>
  <circle cx="600" cy="430" r="94" fill="#14304A" stroke="#4EA0FF" stroke-width="4"/>
  <path d="M600 382C560 382 528 414 528 454V488H672V454C672 414 640 382 600 382Z" fill="#E7F8FF"/>
  <path d="M544 488H656V544C656 588 632 626 600 646C568 626 544 588 544 544V488Z" fill="#2A8FC5"/>
  <path d="M0 566C84 522 152 510 240 518C322 526 398 560 462 560C550 560 620 518 716 518C800 518 866 564 950 564C1040 564 1112 520 1200 520V630H0V566Z" fill="#1E3852"/>
  <path d="M0 590C92 550 178 548 272 566C350 580 424 614 500 614C588 614 662 566 760 566C844 566 910 610 1006 610C1084 610 1140 574 1200 560V630H0V590Z" fill="#0F2338"/>
  <text x="78" y="588" fill="#E7F0F8" font-family="Arial, sans-serif" font-size="42">Browser Support for Device-Based Conditional Access</text>
</svg>
