<svg width="1600" height="900" viewBox="0 0 1600 900" fill="none" xmlns="http://www.w3.org/2000/svg">
  <rect width="1600" height="900" rx="40" fill="#07101D"/>
  <rect x="40" y="40" width="1520" height="820" rx="32" fill="url(#bg)"/>
  <rect x="96" y="110" width="420" height="180" rx="26" fill="#0E1B2D" stroke="#28435E"/>
  <text x="136" y="170" fill="#A9BED3" font-family="Arial, sans-serif" font-size="34" letter-spacing="5">MICROSOFT ENTRA</text>
  <text x="136" y="225" fill="#F3F8FF" font-family="Arial, sans-serif" font-size="60" font-weight="700">Agent ID</text>
  <text x="136" y="270" fill="#6EB7FF" font-family="Arial, sans-serif" font-size="30">Security Architecture</text>

  <rect x="110" y="360" width="320" height="140" rx="22" fill="#0B1727" stroke="#23507B"/>
  <rect x="110" y="540" width="320" height="140" rx="22" fill="#0B1727" stroke="#23507B"/>
  <rect x="490" y="450" width="300" height="140" rx="22" fill="#0B1727" stroke="#23507B"/>
  <rect x="860" y="290" width="290" height="120" rx="22" fill="#0B1727" stroke="#23507B"/>
  <rect x="860" y="470" width="290" height="120" rx="22" fill="#0B1727" stroke="#23507B"/>
  <rect x="1220" y="380" width="250" height="120" rx="22" fill="#0B1727" stroke="#23507B"/>

  <circle cx="640" cy="300" r="94" fill="#0D1F34" stroke="#5FC4FF" stroke-width="4"/>
  <circle cx="640" cy="300" r="58" fill="#153757"/>
  <circle cx="615" cy="288" r="8" fill="#B8EEFF"/>
  <circle cx="665" cy="288" r="8" fill="#B8EEFF"/>
  <path d="M608 328C623 343 657 343 672 328" stroke="#B8EEFF" stroke-width="6" stroke-linecap="round"/>
  <rect x="622" y="212" width="36" height="30" rx="8" fill="#1D4C75"/>
  <path d="M640 206V184" stroke="#5FC4FF" stroke-width="6" stroke-linecap="round"/>

  <path d="M430 430H546" stroke="#3F86B7" stroke-width="4"/>
  <path d="M430 610H546" stroke="#3F86B7" stroke-width="4"/>
  <path d="M734 300H860" stroke="#3F86B7" stroke-width="4"/>
  <path d="M790 520H860" stroke="#3F86B7" stroke-width="4"/>
  <path d="M1150 350H1220" stroke="#3F86B7" stroke-width="4"/>
  <path d="M1150 530H1220" stroke="#3F86B7" stroke-width="4"/>
  <path d="M640 394V450" stroke="#3F86B7" stroke-width="4"/>

  <text x="150" y="415" fill="#F3F8FF" font-family="Arial, sans-serif" font-size="28" font-weight="700">Conditional Access</text>
  <text x="150" y="455" fill="#A9BED3" font-family="Arial, sans-serif" font-size="24">Token evaluation for</text>
  <text x="150" y="488" fill="#A9BED3" font-family="Arial, sans-serif" font-size="24">agent identities and users</text>

  <text x="150" y="595" fill="#F3F8FF" font-family="Arial, sans-serif" font-size="28" font-weight="700">Identity Governance</text>
  <text x="150" y="635" fill="#A9BED3" font-family="Arial, sans-serif" font-size="24">Sponsors, access packages,</text>
  <text x="150" y="668" fill="#A9BED3" font-family="Arial, sans-serif" font-size="24">lifecycle and approvals</text>

  <text x="530" y="505" fill="#F3F8FF" font-family="Arial, sans-serif" font-size="28" font-weight="700">Agent Identity</text>
  <text x="530" y="545" fill="#A9BED3" font-family="Arial, sans-serif" font-size="24">Blueprints, identities,</text>
  <text x="530" y="578" fill="#A9BED3" font-family="Arial, sans-serif" font-size="24">and agent users</text>

  <text x="900" y="340" fill="#F3F8FF" font-family="Arial, sans-serif" font-size="28" font-weight="700">ID Protection</text>
  <text x="900" y="380" fill="#A9BED3" font-family="Arial, sans-serif" font-size="24">Risky agents, anomaly</text>
  <text x="900" y="413" fill="#A9BED3" font-family="Arial, sans-serif" font-size="24">signals and response</text>

  <text x="900" y="520" fill="#F3F8FF" font-family="Arial, sans-serif" font-size="28" font-weight="700">Network Controls</text>
  <text x="900" y="560" fill="#A9BED3" font-family="Arial, sans-serif" font-size="24">Secure Web and AI</text>
  <text x="900" y="593" fill="#A9BED3" font-family="Arial, sans-serif" font-size="24">Gateway traffic policy</text>

  <text x="1260" y="430" fill="#F3F8FF" font-family="Arial, sans-serif" font-size="28" font-weight="700">Zero Trust</text>
  <text x="1260" y="470" fill="#A9BED3" font-family="Arial, sans-serif" font-size="24">Identity, risk,</text>
  <text x="1260" y="503" fill="#A9BED3" font-family="Arial, sans-serif" font-size="24">and network planes</text>

  <defs>
    <linearGradient id="bg" x1="120" y1="80" x2="1490" y2="860" gradientUnits="userSpaceOnUse">
      <stop stop-color="#10192A"/>
      <stop offset="0.55" stop-color="#0A1423"/>
      <stop offset="1" stop-color="#08111E"/>
    </linearGradient>
  </defs>
</svg>
