<svg width="1200" height="630" viewBox="0 0 1200 630" fill="none" xmlns="http://www.w3.org/2000/svg">
  <rect width="1200" height="630" rx="36" fill="#07111E"/>
  <rect x="24" y="24" width="1152" height="582" rx="30" fill="#0B1624" stroke="#223449"/>
  <rect x="104" y="146" width="286" height="120" rx="24" fill="#163245" stroke="#355A7E"/><text x="154" y="198" fill="#A9D9FF" font-family="Arial, sans-serif" font-size="30">Access token</text>
  <rect x="792" y="336" width="238" height="110" rx="22" fill="#163A34" stroke="#2B7A53"/><text x="830" y="404" fill="#B8FFE0" font-family="Arial, sans-serif" font-size="30">Refresh token</text>
  <circle cx="602" cy="302" r="112" fill="#14304A" stroke="#4EA0FF" stroke-width="4"/>
  <path d="M602 246C556 246 518 284 518 330V372H686V330C686 284 648 246 602 246Z" fill="#E7F8FF"/>
  <path d="M536 372H668V438C668 490 640 536 602 558C564 536 536 490 536 438V372Z" fill="#2A8FC5"/>
  <path d="M386 304C454 286 500 280 518 280" stroke="#4EA0FF" stroke-width="4" stroke-linecap="round"/>
  <path d="M686 356C736 364 772 374 792 382" stroke="#6FDFA3" stroke-width="4" stroke-linecap="round"/>
  <path d="M0 566C84 522 152 510 240 518C322 526 398 560 462 560C550 560 620 518 716 518C800 518 866 564 950 564C1040 564 1112 520 1200 520V630H0V566Z" fill="#1E3852"/>
  <path d="M0 590C92 550 178 548 272 566C350 580 424 614 500 614C588 614 662 566 760 566C844 566 910 610 1006 610C1084 610 1140 574 1200 560V630H0V590Z" fill="#0F2338"/>
  <text x="78" y="588" fill="#E7F0F8" font-family="Arial, sans-serif" font-size="44">Access Tokens and Refresh Tokens in Microsoft Identity</text>
</svg>
