<svg width="1200" height="630" viewBox="0 0 1200 630" fill="none" xmlns="http://www.w3.org/2000/svg">
  <rect width="1200" height="630" rx="36" fill="#08111F"/>
  <rect x="26" y="26" width="1148" height="578" rx="30" fill="url(#bg)"/>
  <circle cx="168" cy="140" r="94" fill="#0C1A30" stroke="#24466D" stroke-width="2"/>
  <path d="M168 92C141.49 92 120 113.49 120 140V172C120 198.51 141.49 220 168 220C194.51 220 216 198.51 216 172V140C216 113.49 194.51 92 168 92Z" fill="#11335B"/>
  <path d="M168 120C154.745 120 144 130.745 144 144V156H192V144C192 130.745 181.255 120 168 120Z" fill="#89D6FF"/>
  <rect x="138" y="156" width="60" height="42" rx="10" fill="#B8EEFF"/>
  <circle cx="168" cy="176" r="8" fill="#0C1A30"/>
  <path d="M168 184V192" stroke="#0C1A30" stroke-width="4" stroke-linecap="round"/>
  <rect x="290" y="92" width="270" height="78" rx="18" fill="#0E223B" stroke="#2E6AA2"/>
  <text x="324" y="124" fill="#D7EEFF" font-family="Arial, sans-serif" font-size="28" font-weight="700">CONDITIONAL</text>
  <text x="324" y="154" fill="#D7EEFF" font-family="Arial, sans-serif" font-size="28" font-weight="700">ACCESS</text>
  <rect x="756" y="102" width="280" height="64" rx="18" fill="#0D263A" stroke="#2AA6A4"/>
  <text x="790" y="142" fill="#CCFFFA" font-family="Arial, sans-serif" font-size="28" font-weight="700">AUTH METHODS</text>
  <rect x="760" y="248" width="248" height="64" rx="18" fill="#122630" stroke="#6DA8FF"/>
  <text x="792" y="288" fill="#E7F1FF" font-family="Arial, sans-serif" font-size="28" font-weight="700">APPLICATIONS</text>
  <rect x="128" y="392" width="268" height="64" rx="18" fill="#10212B" stroke="#3CB8FF"/>
  <text x="164" y="432" fill="#DBF5FF" font-family="Arial, sans-serif" font-size="28" font-weight="700">SOFT DELETE</text>
  <rect x="778" y="398" width="236" height="64" rx="18" fill="#12242F" stroke="#2EB67D"/>
  <text x="820" y="438" fill="#DFFEEE" font-family="Arial, sans-serif" font-size="28" font-weight="700">RUNBOOKS</text>
  <path d="M220 140C286 140 302 132 332 132" stroke="url(#lineA)" stroke-width="4" stroke-linecap="round"/>
  <path d="M218 174C290 174 348 174 422 174C486 174 548 190 624 190" stroke="url(#lineB)" stroke-width="4" stroke-linecap="round"/>
  <path d="M216 208C280 220 326 250 378 286C424 318 470 344 530 348" stroke="url(#lineC)" stroke-width="4" stroke-linecap="round"/>
  <path d="M558 132H736" stroke="#2E6AA2" stroke-width="4" stroke-linecap="round"/>
  <path d="M622 190C700 190 738 164 790 164" stroke="#2AA6A4" stroke-width="4" stroke-linecap="round"/>
  <path d="M560 350C628 350 702 304 758 280" stroke="#6DA8FF" stroke-width="4" stroke-linecap="round"/>
  <path d="M186 394C228 342 272 308 340 290" stroke="#3CB8FF" stroke-width="4" stroke-linecap="round"/>
  <path d="M638 350C700 360 742 388 794 418" stroke="#2EB67D" stroke-width="4" stroke-linecap="round"/>
  <circle cx="622" cy="190" r="18" fill="#D4F4FF" stroke="#2E6AA2"/>
  <circle cx="558" cy="350" r="18" fill="#D7E7FF" stroke="#6DA8FF"/>
  <circle cx="638" cy="350" r="18" fill="#D8FFF4" stroke="#2EB67D"/>
  <text x="78" y="552" fill="#DCE6F2" font-family="Arial, sans-serif" font-size="56" font-weight="700">MICROSOFT ENTRA ID</text>
  <text x="78" y="596" fill="#A8BCD2" font-family="Arial, sans-serif" font-size="34" font-weight="700" letter-spacing="2">BACKUP AND RECOVERY STRATEGY</text>
  <defs>
    <linearGradient id="bg" x1="54" y1="42" x2="1112" y2="592" gradientUnits="userSpaceOnUse">
      <stop stop-color="#111728"/>
      <stop offset="0.45" stop-color="#091427"/>
      <stop offset="1" stop-color="#0E1824"/>
    </linearGradient>
    <linearGradient id="lineA" x1="220" y1="140" x2="332" y2="132" gradientUnits="userSpaceOnUse">
      <stop stop-color="#6DC8FF"/>
      <stop offset="1" stop-color="#2E6AA2"/>
    </linearGradient>
    <linearGradient id="lineB" x1="218" y1="174" x2="790" y2="164" gradientUnits="userSpaceOnUse">
      <stop stop-color="#6DC8FF"/>
      <stop offset="1" stop-color="#2AA6A4"/>
    </linearGradient>
    <linearGradient id="lineC" x1="216" y1="208" x2="530" y2="348" gradientUnits="userSpaceOnUse">
      <stop stop-color="#6DC8FF"/>
      <stop offset="1" stop-color="#6DA8FF"/>
    </linearGradient>
  </defs>
</svg>
