<svg width="1200" height="630" viewBox="0 0 1200 630" fill="none" xmlns="http://www.w3.org/2000/svg">
  <rect width="1200" height="630" rx="36" fill="#07111E"/>
  <rect x="24" y="24" width="1152" height="582" rx="30" fill="#0B1624" stroke="#223449"/>
  <circle cx="170" cy="154" r="76" fill="#14304A" stroke="#4EA0FF" stroke-width="4"/>
  <path d="M170 114C140 114 116 138 116 168V192C116 222 140 246 170 246C200 246 224 222 224 192V168C224 138 200 114 170 114Z" fill="#E7F8FF"/>
  <path d="M132 192H208V228C208 258 192 284 170 298C148 284 132 258 132 228V192Z" fill="#2A8FC5"/>
  <rect x="312" y="100" width="244" height="62" rx="16" fill="#163245"/><text x="346" y="141" fill="#A9D9FF" font-family="Arial, sans-serif" font-size="26">Conditional Access</text>
  <rect x="726" y="102" width="236" height="62" rx="16" fill="#163A34"/><text x="770" y="141" fill="#B8FFE0" font-family="Arial, sans-serif" font-size="26">Auth methods</text>
  <rect x="306" y="236" width="220" height="62" rx="16" fill="#163245"/><text x="356" y="277" fill="#A9D9FF" font-family="Arial, sans-serif" font-size="26">Applications</text>
  <rect x="740" y="248" width="196" height="62" rx="16" fill="#163A34"/><text x="780" y="289" fill="#B8FFE0" font-family="Arial, sans-serif" font-size="26">Soft delete</text>
  <rect x="524" y="352" width="208" height="62" rx="16" fill="#2E2338"/><text x="578" y="393" fill="#E3D1FF" font-family="Arial, sans-serif" font-size="26">Runbooks</text>
  <path d="M246 154H312" stroke="#4EA0FF" stroke-width="4" stroke-linecap="round"/>
  <path d="M246 192C314 192 358 222 402 266" stroke="#4EA0FF" stroke-width="4" stroke-linecap="round"/>
  <path d="M246 222C382 222 446 318 524 382" stroke="#4EA0FF" stroke-width="4" stroke-linecap="round"/>
  <path d="M556 130H726" stroke="#4EA0FF" stroke-width="4" stroke-linecap="round"/>
  <path d="M526 266H740" stroke="#6FDFA3" stroke-width="4" stroke-linecap="round"/>
  <path d="M838 164V248" stroke="#6FDFA3" stroke-width="4" stroke-linecap="round"/>
  <path d="M0 566C84 522 152 510 240 518C322 526 398 560 462 560C550 560 620 518 716 518C800 518 866 564 950 564C1040 564 1112 520 1200 520V630H0V566Z" fill="#1E3852"/>
  <path d="M0 590C92 550 178 548 272 566C350 580 424 614 500 614C588 614 662 566 760 566C844 566 910 610 1006 610C1084 610 1140 574 1200 560V630H0V590Z" fill="#0F2338"/>
  <text x="78" y="588" fill="#E7F0F8" font-family="Arial, sans-serif" font-size="42">Microsoft Entra Backup and Recovery</text>
</svg>
