<svg width="1200" height="630" viewBox="0 0 1200 630" fill="none" xmlns="http://www.w3.org/2000/svg">
  <rect width="1200" height="630" rx="36" fill="#07111E"/>
  <rect x="24" y="24" width="1152" height="582" rx="30" fill="#0B1624" stroke="#223449"/>
  <rect x="86" y="126" width="330" height="284" rx="26" fill="#0E1B2B" stroke="#355A7E"/>
  <text x="132" y="190" fill="#E7F0F8" font-family="Arial, sans-serif" font-size="30">Home tenant</text>
  <rect x="784" y="126" width="330" height="284" rx="26" fill="#0E1B2B" stroke="#2D6E8A"/>
  <text x="826" y="190" fill="#E7F0F8" font-family="Arial, sans-serif" font-size="30">Resource tenant</text>
  <path d="M452 268H748" stroke="#EB6A6A" stroke-width="14" stroke-linecap="round"/>
  <path d="M690 214L748 268L690 322" stroke="#EB6A6A" stroke-width="14" stroke-linecap="round" stroke-linejoin="round"/>
  <rect x="450" y="370" width="302" height="84" rx="18" fill="#331A22" stroke="#7B3A49"/>
  <text x="500" y="424" fill="#FFE9EB" font-family="Arial, sans-serif" font-size="32">AADSTS50020</text>
  <path d="M0 566C84 522 152 510 240 518C322 526 398 560 462 560C550 560 620 518 716 518C800 518 866 564 950 564C1040 564 1112 520 1200 520V630H0V566Z" fill="#1E3852"/>
  <path d="M0 590C92 550 178 548 272 566C350 580 424 614 500 614C588 614 662 566 760 566C844 566 910 610 1006 610C1084 610 1140 574 1200 560V630H0V590Z" fill="#0F2338"/>
  <text x="78" y="588" fill="#E7F0F8" font-family="Arial, sans-serif" font-size="42">External User Sign-In Failure</text>
</svg>
