<svg width="1200" height="630" viewBox="0 0 1200 630" fill="none" xmlns="http://www.w3.org/2000/svg">
  <rect width="1200" height="630" rx="36" fill="#07111E"/>
  <rect x="24" y="24" width="1152" height="582" rx="30" fill="#0B1624" stroke="#223449"/>
  <rect x="96" y="126" width="1008" height="312" rx="26" fill="#0E1B2B" stroke="#2D4863"/>
  <rect x="132" y="172" width="936" height="62" rx="14" fill="#122338"/><text x="168" y="212" fill="#E3ECF5" font-family="Arial, sans-serif" font-size="28">AzureAdPrt : NO</text>
  <rect x="132" y="252" width="936" height="62" rx="14" fill="#122338"/><text x="168" y="292" fill="#B8FFE0" font-family="Arial, sans-serif" font-size="28">Attempt Status : 0xc000006d</text>
  <rect x="132" y="332" width="936" height="62" rx="14" fill="#122338"/><text x="168" y="372" fill="#FFD9A9" font-family="Arial, sans-serif" font-size="28">Server Error : AADSTS50155</text>
  <path d="M0 566C84 522 152 510 240 518C322 526 398 560 462 560C550 560 620 518 716 518C800 518 866 564 950 564C1040 564 1112 520 1200 520V630H0V566Z" fill="#1E3852"/>
  <path d="M0 590C92 550 178 548 272 566C350 580 424 614 500 614C588 614 662 566 760 566C844 566 910 610 1006 610C1084 610 1140 574 1200 560V630H0V590Z" fill="#0F2338"/>
  <text x="78" y="588" fill="#E7F0F8" font-family="Arial, sans-serif" font-size="44">Primary Refresh Token Failures on Windows</text>
</svg>
