<svg width="1600" height="1000" viewBox="0 0 1600 1000" fill="none" xmlns="http://www.w3.org/2000/svg">
  <rect width="1600" height="1000" rx="48" fill="#0E1726"/>
  <rect x="56" y="56" width="1488" height="888" rx="36" fill="url(#bg)"/>
  <rect x="170" y="184" width="560" height="560" rx="36" fill="#111D32" stroke="#4CB6FF" stroke-opacity=".28" stroke-width="3"/>
  <rect x="882" y="196" width="538" height="122" rx="26" fill="#17263E" stroke="#7DD3FC" stroke-opacity=".38" stroke-width="3"/>
  <rect x="882" y="366" width="538" height="122" rx="26" fill="#17263E" stroke="#34D399" stroke-opacity=".34" stroke-width="3"/>
  <rect x="882" y="536" width="538" height="122" rx="26" fill="#17263E" stroke="#F59E0B" stroke-opacity=".34" stroke-width="3"/>
  <path d="M452 286C353 286 274 365 274 464V608C274 707 353 786 452 786C551 786 630 707 630 608V464C630 365 551 286 452 286Z" fill="#E8FBFF"/>
  <path d="M452 356C397 356 352 401 352 456V516H552V456C552 401 507 356 452 356Z" fill="#0C476F"/>
  <path d="M368 516H536V600C536 664 503 721 452 753C401 721 368 664 368 600V516Z" fill="#0FA4C8"/>
  <circle cx="452" cy="566" r="20" fill="#09283E"/>
  <rect x="320" y="132" width="264" height="96" rx="22" fill="#17263E" stroke="#E879F9" stroke-opacity=".36" stroke-width="3"/>
  <text x="352" y="190" fill="#F5E8FF" font-family="Arial, sans-serif" font-size="32" font-weight="700">PASSKEY</text>
  <text x="928" y="272" fill="#E7F6FF" font-family="Arial, sans-serif" font-size="32" font-weight="700">POLICY TARGETING</text>
  <text x="928" y="442" fill="#E7FFF7" font-family="Arial, sans-serif" font-size="32" font-weight="700">AUTHENTICATOR PATH</text>
  <text x="928" y="612" fill="#FFF8E8" font-family="Arial, sans-serif" font-size="32" font-weight="700">PLATFORM SUPPORT</text>
  <defs>
    <linearGradient id="bg" x1="126" y1="102" x2="1454" y2="902" gradientUnits="userSpaceOnUse">
      <stop stop-color="#0F1C32"/>
      <stop offset="1" stop-color="#111827"/>
    </linearGradient>
  </defs>
</svg>
