<svg width="1200" height="630" viewBox="0 0 1200 630" fill="none" xmlns="http://www.w3.org/2000/svg">
  <rect width="1200" height="630" rx="36" fill="#09121F"/>
  <rect x="28" y="28" width="1144" height="574" rx="30" fill="url(#bg)"/>
  <rect x="68" y="82" width="1064" height="466" rx="28" fill="#0D1622" stroke="#2D3949"/>
  <rect x="104" y="124" width="208" height="338" rx="26" fill="#0F2137" stroke="#38659A"/>
  <rect x="124" y="158" width="168" height="28" rx="8" fill="#1E3E62"/>
  <circle cx="208" cy="278" r="54" fill="#0C2E55" stroke="#66B6FF"/>
  <path d="M208 252C192.536 252 180 264.536 180 280V298H236V280C236 264.536 223.464 252 208 252Z" fill="#C2F2FF"/>
  <rect x="172" y="298" width="72" height="48" rx="12" fill="#E5FBFF"/>
  <circle cx="208" cy="322" r="9" fill="#0B1A2A"/>
  <text x="146" y="392" fill="#E8F5FF" font-family="Arial, sans-serif" font-size="20" font-weight="700">WINDOWS</text>
  <text x="128" y="420" fill="#BFD4E8" font-family="Arial, sans-serif" font-size="18" font-weight="700">HELLO CONTAINER</text>
  <rect x="364" y="124" width="208" height="338" rx="26" fill="#0F2130" stroke="#2D8A9C"/>
  <rect x="388" y="156" width="160" height="24" rx="8" fill="#1A4951"/>
  <rect x="418" y="212" width="100" height="174" rx="26" fill="#122735" stroke="#5ECBD6"/>
  <circle cx="468" cy="330" r="16" fill="#5ECBD6"/>
  <text x="440" y="392" fill="#E8FDFF" font-family="Arial, sans-serif" font-size="20" font-weight="700">iPHONE</text>
  <text x="404" y="420" fill="#C6E7EA" font-family="Arial, sans-serif" font-size="18" font-weight="700">SECURITY KEY</text>
  <rect x="624" y="124" width="208" height="338" rx="26" fill="#101E2D" stroke="#3F8B64"/>
  <rect x="648" y="156" width="160" height="24" rx="8" fill="#1F4D38"/>
  <rect x="690" y="214" width="76" height="160" rx="20" fill="#0F2430" stroke="#6BE29B"/>
  <circle cx="728" cy="346" r="10" fill="#6BE29B"/>
  <text x="684" y="392" fill="#EFFFF2" font-family="Arial, sans-serif" font-size="20" font-weight="700">ANDROID</text>
  <text x="664" y="420" fill="#D2ECD8" font-family="Arial, sans-serif" font-size="18" font-weight="700">USB PASSKEY</text>
  <rect x="884" y="124" width="188" height="338" rx="26" fill="#131F2B" stroke="#587AA6"/>
  <text x="920" y="170" fill="#EAF2FF" font-family="Arial, sans-serif" font-size="21" font-weight="700">REGISTRATION</text>
  <rect x="914" y="206" width="128" height="40" rx="10" fill="#17304E"/>
  <text x="944" y="232" fill="#DFF2FF" font-family="Arial, sans-serif" font-size="18" font-weight="700">MFA</text>
  <rect x="914" y="262" width="128" height="40" rx="10" fill="#1A404D"/>
  <text x="936" y="288" fill="#E4FFFE" font-family="Arial, sans-serif" font-size="18" font-weight="700">PROFILE</text>
  <rect x="914" y="318" width="128" height="40" rx="10" fill="#1D4C3E"/>
  <text x="927" y="344" fill="#ECFFF4" font-family="Arial, sans-serif" font-size="18" font-weight="700">AAGUID</text>
  <rect x="914" y="374" width="128" height="40" rx="10" fill="#213045"/>
  <text x="926" y="400" fill="#EAF0FF" font-family="Arial, sans-serif" font-size="18" font-weight="700">ATTEST</text>
  <text x="74" y="584" fill="#EEF4FB" font-family="Arial, sans-serif" font-size="46" font-weight="700">PASSKEY REGISTRATION ON WINDOWS, IOS, AND ANDROID</text>
  <defs>
    <linearGradient id="bg" x1="60" y1="40" x2="1140" y2="594" gradientUnits="userSpaceOnUse">
      <stop stop-color="#121A2A"/>
      <stop offset="0.55" stop-color="#0A1523"/>
      <stop offset="1" stop-color="#101A24"/>
    </linearGradient>
  </defs>
</svg>
