<svg width="1200" height="630" viewBox="0 0 1200 630" fill="none" xmlns="http://www.w3.org/2000/svg">
  <rect width="1200" height="630" rx="36" fill="#07111E"/>
  <rect x="24" y="24" width="1152" height="582" rx="30" fill="#0B1624" stroke="#223449"/>
  <rect x="74" y="88" width="308" height="438" rx="26" fill="#0E1B2B" stroke="#23384F"/>
  <rect x="112" y="122" width="234" height="364" rx="32" fill="#122338" stroke="#2D4863"/>
  <rect x="148" y="162" width="160" height="18" rx="8" fill="#385878"/>
  <circle cx="229" cy="332" r="58" fill="#1270C6"/>
  <path d="M229 302C211.327 302 197 316.327 197 334V356H261V334C261 316.327 246.673 302 229 302Z" fill="#DFF5FF"/>
  <rect x="189" y="356" width="80" height="56" rx="12" fill="#F4FDFF"/>
  <circle cx="229" cy="384" r="10" fill="#145A97"/>
  <text x="144" y="460" fill="#53D2C7" font-family="Arial, sans-serif" font-size="30" font-weight="400">Windows</text>
  <text x="144" y="494" fill="#D1E2F3" font-family="Arial, sans-serif" font-size="24" font-weight="400">Hello registration</text>
  <rect x="442" y="88" width="308" height="438" rx="26" fill="#0E1B2B" stroke="#23384F"/>
  <rect x="534" y="150" width="122" height="246" rx="28" fill="#122338" stroke="#2D4863"/>
  <circle cx="595" cy="340" r="12" fill="#7FA7C8"/>
  <rect x="508" y="210" width="34" height="90" rx="12" fill="#173245" stroke="#3E6B77"/>
  <path d="M524 176H618" stroke="#7E94A8" stroke-width="3" stroke-linecap="round"/>
  <path d="M470 430H722" stroke="#5B6B7B" stroke-width="2"/>
  <text x="480" y="470" fill="#53D2C7" font-family="Arial, sans-serif" font-size="30" font-weight="400">iPhone / Android</text>
  <text x="480" y="504" fill="#D1E2F3" font-family="Arial, sans-serif" font-size="24" font-weight="400">Security key ceremony</text>
  <rect x="812" y="88" width="296" height="438" rx="26" fill="#0E1B2B" stroke="#23384F"/>
  <text x="850" y="146" fill="#D1E2F3" font-family="Arial, sans-serif" font-size="28" font-weight="400">Registration checks</text>
  <rect x="850" y="186" width="214" height="48" rx="12" fill="#122338" stroke="#2D4863"/>
  <text x="876" y="217" fill="#4EA0FF" font-family="Arial, sans-serif" font-size="22" font-weight="400">Recent MFA</text>
  <rect x="850" y="252" width="214" height="48" rx="12" fill="#122338" stroke="#2D4863"/>
  <text x="876" y="283" fill="#4EA0FF" font-family="Arial, sans-serif" font-size="22" font-weight="400">Profile scope</text>
  <rect x="850" y="318" width="214" height="48" rx="12" fill="#122338" stroke="#2D4863"/>
  <text x="876" y="349" fill="#4EA0FF" font-family="Arial, sans-serif" font-size="22" font-weight="400">AAGUID</text>
  <rect x="850" y="384" width="214" height="48" rx="12" fill="#122338" stroke="#2D4863"/>
  <text x="876" y="415" fill="#4EA0FF" font-family="Arial, sans-serif" font-size="22" font-weight="400">Attestation</text>
  <path d="M0 566C84 522 152 510 240 518C322 526 398 560 462 560C550 560 620 518 716 518C800 518 866 564 950 564C1040 564 1112 520 1200 520V630H0V566Z" fill="#1E3852"/>
  <path d="M0 590C92 550 178 548 272 566C350 580 424 614 500 614C588 614 662 566 760 566C844 566 910 610 1006 610C1084 610 1140 574 1200 560V630H0V590Z" fill="#0F2338"/>
  <text x="82" y="588" fill="#E7F0F8" font-family="Arial, sans-serif" font-size="42" font-weight="400">Passkey Registration Across Windows and Mobile</text>
</svg>
