<svg width="1200" height="630" viewBox="0 0 1200 630" fill="none" xmlns="http://www.w3.org/2000/svg">
  <rect width="1200" height="630" rx="36" fill="#07111E"/>
  <rect x="24" y="24" width="1152" height="582" rx="30" fill="#0B1624" stroke="#223449"/>
  <circle cx="596" cy="286" r="110" fill="#14304A" stroke="#4EA0FF" stroke-width="4"/>
  <path d="M596 230C550 230 512 268 512 314V356H680V314C680 268 642 230 596 230Z" fill="#E7F8FF"/>
  <path d="M530 356H662V422C662 474 634 520 596 542C558 520 530 474 530 422V356Z" fill="#2A8FC5"/>
  <circle cx="826" cy="194" r="58" fill="#331A22" stroke="#7B3A49" stroke-width="4"/>
  <path d="M826 166V202" stroke="#FFD1D8" stroke-width="10" stroke-linecap="round"/><circle cx="826" cy="226" r="8" fill="#FFD1D8"/>
  <rect x="136" y="184" width="216" height="60" rx="14" fill="#163245"/><text x="174" y="223" fill="#A9D9FF" font-family="Arial, sans-serif" font-size="24">Bluetooth</text>
  <rect x="842" y="384" width="214" height="60" rx="14" fill="#331A22"/><text x="896" y="423" fill="#FFD1D8" font-family="Arial, sans-serif" font-size="24">CA loop</text>
  <path d="M352 214H486" stroke="#4EA0FF" stroke-width="4" stroke-linecap="round"/>
  <path d="M706 414H842" stroke="#EB6A6A" stroke-width="4" stroke-linecap="round"/>
  <path d="M0 566C84 522 152 510 240 518C322 526 398 560 462 560C550 560 620 518 716 518C800 518 866 564 950 564C1040 564 1112 520 1200 520V630H0V566Z" fill="#1E3852"/>
  <path d="M0 590C92 550 178 548 272 566C350 580 424 614 500 614C588 614 662 566 760 566C844 566 910 610 1006 610C1084 610 1140 574 1200 560V630H0V590Z" fill="#0F2338"/>
  <text x="78" y="588" fill="#E7F0F8" font-family="Arial, sans-serif" font-size="42">Passkey Troubleshooting Guide</text>
</svg>
