<svg width="1200" height="630" viewBox="0 0 1200 630" fill="none" xmlns="http://www.w3.org/2000/svg">
  <rect width="1200" height="630" rx="36" fill="#07111E"/>
  <rect x="24" y="24" width="1152" height="582" rx="30" fill="#0B1624" stroke="#223449"/>
  <rect x="94" y="170" width="212" height="96" rx="22" fill="#163245" stroke="#355A7E"/><text x="138" y="229" fill="#A9D9FF" font-family="Arial, sans-serif" font-size="28">Access</text>
  <rect x="884" y="170" width="212" height="96" rx="22" fill="#163245" stroke="#2D6E8A"/><text x="936" y="229" fill="#A9D9FF" font-family="Arial, sans-serif" font-size="28">Sign-in</text>
  <rect x="900" y="352" width="218" height="96" rx="22" fill="#2E2338" stroke="#5C447D"/><text x="944" y="411" fill="#E3D1FF" font-family="Arial, sans-serif" font-size="28">Policy flow</text>
  <circle cx="598" cy="300" r="132" fill="#14304A" stroke="#4EA0FF" stroke-width="4"/>
  <path d="M598 236L714 298V396C714 468 662 532 598 566C534 532 482 468 482 396V298L598 236Z" fill="#1D67A3"/>
  <path d="M598 280L670 320V386C670 434 638 476 598 502C558 476 526 434 526 386V320L598 280Z" fill="#0F2238"/>
  <path d="M306 218H466" stroke="#4EA0FF" stroke-width="4" stroke-linecap="round"/>
  <path d="M730 218H884" stroke="#4EA0FF" stroke-width="4" stroke-linecap="round"/>
  <path d="M722 398H900" stroke="#C197FF" stroke-width="4" stroke-linecap="round"/>
  <path d="M0 566C84 522 152 510 240 518C322 526 398 560 462 560C550 560 620 518 716 518C800 518 866 564 950 564C1040 564 1112 520 1200 520V630H0V566Z" fill="#1E3852"/>
  <path d="M0 590C92 550 178 548 272 566C350 580 424 614 500 614C588 614 662 566 760 566C844 566 910 610 1006 610C1084 610 1140 574 1200 560V630H0V590Z" fill="#0F2338"/>
  <text x="78" y="588" fill="#E7F0F8" font-family="Arial, sans-serif" font-size="42">Conditional Access Evaluation Pipeline</text>
</svg>
