<svg width="1200" height="630" viewBox="0 0 1200 630" fill="none" xmlns="http://www.w3.org/2000/svg">
  <rect width="1200" height="630" rx="36" fill="#07111E"/>
  <rect x="24" y="24" width="1152" height="582" rx="30" fill="#0B1624" stroke="#223449"/>
  <rect x="88" y="128" width="314" height="308" rx="24" fill="#0E1B2B" stroke="#2B7A53"/>
  <text x="126" y="182" fill="#E7F0F8" font-family="Arial, sans-serif" font-size="28">Intune</text>
  <rect x="124" y="230" width="238" height="50" rx="12" fill="#12332A"/><text x="154" y="263" fill="#B8FFE0" font-family="Arial, sans-serif" font-size="24">Compliant</text>
  <rect x="124" y="304" width="238" height="50" rx="12" fill="#163245"/><text x="154" y="337" fill="#A9D9FF" font-family="Arial, sans-serif" font-size="24">Device ID sent</text>
  <rect x="468" y="128" width="310" height="308" rx="24" fill="#0E1B2B" stroke="#355A7E"/>
  <text x="520" y="182" fill="#E7F0F8" font-family="Arial, sans-serif" font-size="28">Entra</text>
  <rect x="504" y="230" width="238" height="50" rx="12" fill="#163245"/><text x="542" y="263" fill="#A9D9FF" font-family="Arial, sans-serif" font-size="24">CA evaluation</text>
  <rect x="504" y="304" width="238" height="50" rx="12" fill="#351C22"/><text x="534" y="337" fill="#FFD1D8" font-family="Arial, sans-serif" font-size="24">Blocked</text>
  <circle cx="934" cy="282" r="104" fill="#14304A" stroke="#4EA0FF" stroke-width="4"/>
  <path d="M934 228C890 228 854 264 854 308V346H1014V308C1014 264 978 228 934 228Z" fill="#E7F8FF"/>
  <path d="M872 346H996V408C996 456 970 499 934 520C898 499 872 456 872 408V346Z" fill="#2A8FC5"/>
  <path d="M1026 194L1096 264" stroke="#EB6A6A" stroke-width="12" stroke-linecap="round"/><path d="M1096 194L1026 264" stroke="#EB6A6A" stroke-width="12" stroke-linecap="round"/>
  <path d="M0 566C84 522 152 510 240 518C322 526 398 560 462 560C550 560 620 518 716 518C800 518 866 564 950 564C1040 564 1112 520 1200 520V630H0V566Z" fill="#1E3852"/>
  <path d="M0 590C92 550 178 548 272 566C350 580 424 614 500 614C588 614 662 566 760 566C844 566 910 610 1006 610C1084 610 1140 574 1200 560V630H0V590Z" fill="#0F2338"/>
  <text x="78" y="588" fill="#E7F0F8" font-family="Arial, sans-serif" font-size="40">Compliant Device Still Blocked by Conditional Access</text>
</svg>
